<svg width="28" height="38" viewBox="0 0 28 38" fill="none" xmlns="http://www.w3.org/2000/svg">
<path d="M13.2051 28.9491C5.93151 22.4619 -4.25148 8.42587 13.2051 4.17969C20.4786 5.55577 30.6616 12.4362 13.2051 28.9491Z" fill="#05CAAD"/>
<g filter="url(#filter0_f_19388_10908)">
<ellipse cx="13.1542" cy="31.1156" rx="8.17955" ry="2.23079" fill="#D1D1D1"/>
</g>
<path d="M21.0526 6.31635C18.9596 4.19293 16.1208 3 13.1608 3C10.2007 3 7.36196 4.19293 5.26891 6.31635C3.17586 8.43977 2 11.3198 2 14.3227C2 17.3257 3.17586 20.2057 5.26891 22.3291L12.2006 29.3747C12.3229 29.4998 12.4683 29.5991 12.6286 29.6668C12.7889 29.7346 12.9608 29.7694 13.1345 29.7694C13.3081 29.7694 13.48 29.7346 13.6403 29.6668C13.8006 29.5991 13.946 29.4998 14.0683 29.3747L21.0526 22.2624C23.1369 20.1478 24.3079 17.2798 24.3079 14.2894C24.3079 11.2989 23.1369 8.43094 21.0526 6.31635ZM19.1717 20.3542L13.1608 26.4791L7.1498 20.3542C5.96227 19.1483 5.15379 17.6123 4.82657 15.9404C4.49934 14.2685 4.66806 12.5356 5.3114 10.961C5.95474 9.38628 7.04381 8.04046 8.44095 7.09361C9.83809 6.14675 11.4806 5.64139 13.1608 5.64139C14.841 5.64139 16.4834 6.14675 17.8806 7.09361C19.2777 8.04046 20.3668 9.38628 21.0101 10.961C21.6535 12.5356 21.8222 14.2685 21.495 15.9404C21.1677 17.6123 20.3593 19.1483 19.1717 20.3542Z" fill="#05CAAD"/>
<g filter="url(#filter1_d_19388_10908)">
<path d="M10.6926 15.8909H11.8887L10.3833 21.4108C10.3571 21.503 10.3519 21.6003 10.3681 21.695C10.3843 21.7897 10.4215 21.8791 10.4768 21.9561C10.532 22.0331 10.6037 22.0956 10.6862 22.1385C10.7687 22.1815 10.8596 22.2037 10.9518 22.2034C11.0306 22.2038 11.1087 22.1876 11.1813 22.1558C11.254 22.124 11.3198 22.0772 11.3747 22.0183L17.0415 16.0855C17.1317 15.9919 17.1932 15.8724 17.2182 15.7422C17.2432 15.612 17.2305 15.477 17.1817 15.3544C17.1329 15.2317 17.0503 15.127 16.9444 15.0535C16.8384 14.98 16.7139 14.9411 16.5867 14.9416H15.4724L16.8368 9.92009C16.888 9.7306 16.8965 9.53132 16.8617 9.33783C16.8268 9.14434 16.7496 8.96188 16.636 8.80471C16.5224 8.64754 16.3755 8.51991 16.2068 8.43182C16.038 8.34372 15.8521 8.29754 15.6634 8.29688H12.7073C12.4422 8.29828 12.1846 8.38919 11.9731 8.55602C11.7616 8.72284 11.6076 8.95661 11.5339 9.22239L9.97398 14.9179C9.94306 15.0323 9.93795 15.1526 9.95907 15.2693C9.98019 15.3861 10.027 15.4962 10.0957 15.5909C10.1644 15.6857 10.2533 15.7625 10.3553 15.8153C10.4573 15.8682 10.5696 15.8957 10.6835 15.8956L10.6926 15.8909Z" fill="white"/>
</g>
<defs>
<filter id="filter0_f_19388_10908" x="0.974609" y="24.8848" width="24.3594" height="12.4609" filterUnits="userSpaceOnUse" color-interpolation-filters="sRGB">
<feFlood flood-opacity="0" result="BackgroundImageFix"/>
<feBlend mode="normal" in="SourceGraphic" in2="BackgroundImageFix" result="shape"/>
<feGaussianBlur stdDeviation="2" result="effect1_foregroundBlur_19388_10908"/>
</filter>
<filter id="filter1_d_19388_10908" x="5.94629" y="0.296875" width="21.2842" height="27.9062" filterUnits="userSpaceOnUse" color-interpolation-filters="sRGB">
<feFlood flood-opacity="0" result="BackgroundImageFix"/>
<feColorMatrix in="SourceAlpha" type="matrix" values="0 0 0 0 0 0 0 0 0 0 0 0 0 0 0 0 0 0 127 0" result="hardAlpha"/>
<feOffset dx="3" dy="-1"/>
<feGaussianBlur stdDeviation="3.5"/>
<feComposite in2="hardAlpha" operator="out"/>
<feColorMatrix type="matrix" values="0 0 0 0 1 0 0 0 0 1 0 0 0 0 1 0 0 0 0.69 0"/>
<feBlend mode="normal" in2="BackgroundImageFix" result="effect1_dropShadow_19388_10908"/>
<feBlend mode="normal" in="SourceGraphic" in2="effect1_dropShadow_19388_10908" result="shape"/>
</filter>
</defs>
</svg>
