<svg width="214" height="36" viewBox="0 0 214 36" fill="none" xmlns="http://www.w3.org/2000/svg">
<path d="M57.0043 30.1705C54.9768 30.1705 53.1208 29.6503 51.4362 28.6099C49.7617 27.5695 48.4352 26.1537 47.4567 24.3624C46.4883 22.5712 46.0042 20.603 46.0042 18.4578C46.0042 16.3019 46.4883 14.3337 47.4567 12.5532C48.4352 10.7727 49.7617 9.36764 51.4362 8.33796C53.1208 7.29755 54.9768 6.77734 57.0043 6.77734C59.0319 6.77734 60.8829 7.29755 62.5574 8.33796C64.242 9.36764 65.5684 10.7727 66.5368 12.5532C67.5153 14.3337 68.0045 16.3019 68.0045 18.4578C68.0045 20.603 67.5153 22.5712 66.5368 24.3624C65.5684 26.1537 64.242 27.5695 62.5574 28.6099C60.8829 29.6503 59.0319 30.1705 57.0043 30.1705ZM57.0043 25.9874C58.235 25.9874 59.3698 25.6549 60.4088 24.9899C61.4579 24.3249 62.2901 23.4186 62.9054 22.2709C63.5308 21.1232 63.8435 19.8576 63.8435 18.4739C63.8435 17.0796 63.5308 15.8086 62.9054 14.6609C62.2901 13.5132 61.4579 12.6122 60.4088 11.9579C59.3597 11.2929 58.2249 10.9604 57.0043 10.9604C55.7838 10.9604 54.649 11.2929 53.5999 11.9579C52.5508 12.623 51.7136 13.5293 51.0881 14.677C50.4728 15.8246 50.1652 17.0903 50.1652 18.4739C50.1652 19.8576 50.4728 21.1232 51.0881 22.2709C51.7136 23.4186 52.5508 24.3249 53.5999 24.9899C54.649 25.6549 55.7838 25.9874 57.0043 25.9874ZM80.2007 12.5532C81.4717 12.5532 82.5763 12.8428 83.5144 13.422C84.4626 13.9905 85.194 14.8218 85.7085 15.9158C86.2229 16.9991 86.4801 18.2969 86.4801 19.8093V29.7844H82.6065V20.5333C82.6065 19.2033 82.2989 18.1736 81.6836 17.4442C81.0783 16.7148 80.231 16.3502 79.1416 16.3502C78.4254 16.3502 77.7646 16.5326 77.1594 16.8972C76.5643 17.2619 76.0902 17.7553 75.7371 18.3774C75.3942 18.9995 75.2227 19.686 75.2227 20.4368V29.7844H71.3643V12.9233H74.6779L74.9352 15.1114C75.5203 14.3498 76.2969 13.7331 77.2653 13.2611C78.2337 12.7892 79.2122 12.5532 80.2007 12.5532ZM92.9294 22.7375C93.1816 23.9387 93.7213 24.8826 94.5484 25.5691C95.3857 26.2555 96.3742 26.5988 97.5141 26.5988C98.9767 26.5988 100.233 26.0839 101.282 25.0542L103.128 27.902C102.371 28.642 101.499 29.2159 100.51 29.6235C99.5316 30.0311 98.4573 30.2348 97.2871 30.2348C95.7438 30.2348 94.3467 29.8433 93.0959 29.0604C91.8551 28.2666 90.8817 27.1941 90.1756 25.8426C89.4695 24.4911 89.1164 23.0163 89.1164 21.4182C89.1164 19.7986 89.4493 18.313 90.1151 16.9616C90.7808 15.6101 91.7038 14.5429 92.884 13.7599C94.0743 12.9662 95.4058 12.5693 96.8786 12.5693C98.5027 12.5693 99.9048 12.9447 101.085 13.6955C102.265 14.4356 103.163 15.4653 103.778 16.7846C104.394 18.1039 104.701 19.6108 104.701 21.3055C104.701 21.8204 104.671 22.2977 104.611 22.7375H92.9294ZM97.0299 16.1249C96.0212 16.1249 95.1537 16.436 94.4274 17.0581C93.7011 17.6695 93.2118 18.5222 92.9597 19.6162H100.979C100.747 18.5007 100.288 17.6427 99.6022 17.042C98.9263 16.4306 98.0689 16.1249 97.0299 16.1249Z" fill="url(#paint0_linear_11039_4636)"/>
<path d="M119.876 30.1708C117.848 30.1708 115.992 29.6505 114.307 28.6102C112.633 27.5698 111.307 26.154 110.328 24.3627C109.36 22.5715 108.876 20.6033 108.876 18.4581C108.876 16.3022 109.36 14.334 110.328 12.5535C111.307 10.773 112.633 9.36793 114.307 8.33825C115.992 7.29784 117.848 6.77763 119.876 6.77763C121.248 6.77763 122.544 7.02433 123.765 7.51772C124.995 8.00038 126.095 8.68147 127.063 9.561L124.748 12.8592C124.093 12.2907 123.336 11.8349 122.478 11.4917C121.631 11.1377 120.764 10.9607 119.876 10.9607C118.655 10.9607 117.52 11.2932 116.471 11.9582C115.422 12.6233 114.585 13.5296 113.96 14.6772C113.344 15.8249 113.036 17.0906 113.036 18.4742C113.036 19.8578 113.344 21.1235 113.96 22.2712C114.585 23.4189 115.422 24.3251 116.471 24.9902C117.52 25.6552 118.655 25.9877 119.876 25.9877C120.794 25.9877 121.641 25.8322 122.418 25.5211C123.195 25.1993 123.986 24.7006 124.793 24.0248L127.063 27.3552C126.084 28.2455 124.985 28.9373 123.765 29.4307C122.544 29.9241 121.248 30.1708 119.876 30.1708ZM138.802 12.5535C140.063 12.5535 141.167 12.8431 142.115 13.4223C143.064 13.9908 143.795 14.822 144.309 15.9161C144.824 16.9994 145.081 18.2972 145.081 19.8096V29.7846H141.207V20.5336C141.207 19.2036 140.9 18.1739 140.284 17.4445C139.679 16.7151 138.827 16.3505 137.727 16.3505C137.011 16.3505 136.35 16.5328 135.745 16.8975C135.15 17.2622 134.681 17.7556 134.338 18.3777C133.995 18.9998 133.823 19.6863 133.823 20.437V29.7846H129.98V5.68359H133.823V14.7416C134.439 14.0873 135.196 13.5617 136.093 13.1649C136.991 12.7573 137.894 12.5535 138.802 12.5535Z" fill="url(#paint1_linear_11039_4636)"/>
<path d="M160.837 12.9232H164.196V29.7843H160.821L160.549 27.8054C159.944 28.5455 159.233 29.1301 158.416 29.5591C157.599 29.9774 156.686 30.1865 155.677 30.1865C154.245 30.1865 152.913 29.795 151.682 29.0121C150.462 28.2183 149.494 27.1511 148.777 25.8104C148.061 24.4589 147.703 22.9788 147.703 21.3699C147.703 19.761 148.061 18.2862 148.777 16.9454C149.504 15.594 150.477 14.5267 151.698 13.7438C152.918 12.95 154.245 12.5532 155.677 12.5532C156.706 12.5532 157.629 12.7677 158.446 13.1968C159.273 13.6258 159.99 14.2157 160.595 14.9665L160.837 12.9232ZM156.01 26.293C156.847 26.293 157.614 26.0839 158.31 25.6656C159.006 25.2366 159.555 24.652 159.959 23.9119C160.363 23.1611 160.565 22.3191 160.565 21.386C160.565 20.4528 160.363 19.6108 159.959 18.86C159.555 18.0985 159.006 17.5032 158.31 17.0742C157.614 16.6451 156.847 16.4306 156.01 16.4306C155.183 16.4306 154.426 16.6451 153.74 17.0742C153.055 17.5032 152.515 18.0985 152.121 18.86C151.728 19.6108 151.531 20.4528 151.531 21.386C151.531 22.3191 151.728 23.1611 152.121 23.9119C152.515 24.6627 153.049 25.2473 153.725 25.6656C154.411 26.0839 155.173 26.293 156.01 26.293ZM176.162 12.5693C176.767 12.5693 177.382 12.6819 178.008 12.9072C178.633 13.1324 179.239 13.4596 179.823 13.8886L178.114 17.235C177.327 16.6451 176.52 16.3502 175.693 16.3502C175.108 16.3609 174.553 16.5593 174.029 16.9454C173.504 17.3209 173.075 17.8571 172.742 18.5543C172.419 19.2408 172.248 20.0399 172.228 20.9516V29.7843H168.37V12.9232H171.683L171.955 15.1918C172.399 14.3658 172.979 13.7223 173.696 13.2611C174.422 12.7999 175.244 12.5693 176.162 12.5693ZM192.065 12.9072H195.258V27.2906C195.258 28.9745 194.956 30.4654 194.35 31.7632C193.755 33.0611 192.847 34.0746 191.627 34.804C190.416 35.5441 188.918 35.9142 187.133 35.9142C185.952 35.9142 184.737 35.7479 183.486 35.4154C182.235 35.0829 181.217 34.6485 180.43 34.1122L181.867 30.9105C183.451 31.8222 185.08 32.2781 186.755 32.2781C187.803 32.2781 188.676 32.0635 189.372 31.6345C190.078 31.2055 190.598 30.6209 190.931 29.8809C191.274 29.1515 191.445 28.3256 191.445 27.4032V27.017C190.86 27.6391 190.184 28.1218 189.418 28.465C188.661 28.8083 187.814 28.9799 186.876 28.9799C185.473 28.9799 184.192 28.6366 183.032 27.9502C181.882 27.253 180.969 26.293 180.293 25.0703C179.628 23.8475 179.295 22.4746 179.295 20.9516C179.295 19.4607 179.633 18.0717 180.309 16.7846C180.984 15.4867 181.902 14.4571 183.063 13.6955C184.222 12.9232 185.498 12.5371 186.89 12.5371C187.899 12.5371 188.802 12.7409 189.599 13.1485C190.396 13.5561 191.092 14.1245 191.687 14.8539L192.065 12.9072ZM187.344 25.376C188.161 25.376 188.893 25.1775 189.539 24.7807C190.184 24.3839 190.689 23.8475 191.052 23.1718C191.415 22.4854 191.597 21.7292 191.597 20.9033C191.597 20.0452 191.415 19.2622 191.052 18.5543C190.689 17.8464 190.179 17.2887 189.523 16.8811C188.878 16.4628 188.152 16.2536 187.344 16.2536C186.537 16.2536 185.811 16.4574 185.166 16.865C184.53 17.2726 184.031 17.8303 183.668 18.5382C183.315 19.2354 183.138 20.0023 183.138 20.8389C183.138 21.6863 183.315 22.4532 183.668 23.1396C184.031 23.8261 184.53 24.3731 185.166 24.7807C185.811 25.1775 186.537 25.376 187.344 25.376Z" fill="url(#paint2_linear_11039_4636)"/>
<path d="M202.228 22.738C202.48 23.9392 203.02 24.8832 203.847 25.5696C204.684 26.256 205.673 26.5993 206.813 26.5993C208.275 26.5993 209.531 26.0844 210.58 25.0547L212.426 27.9025C211.67 28.6426 210.797 29.2164 209.809 29.624C208.83 30.0316 207.756 30.2353 206.586 30.2353C205.042 30.2353 203.645 29.8438 202.395 29.0609C201.154 28.2671 200.18 27.1946 199.474 25.8431C198.768 24.4916 198.415 23.0169 198.415 21.4187C198.415 19.7991 198.748 18.3135 199.414 16.9621C200.079 15.6106 201.003 14.5434 202.183 13.7604C203.373 12.9667 204.705 12.5698 206.178 12.5698C207.801 12.5698 209.204 12.9453 210.384 13.696C211.564 14.4361 212.461 15.4658 213.077 16.7851C213.692 18.1044 214 19.6113 214 21.3061C214 21.8209 213.97 22.2982 213.909 22.738H202.228ZM206.329 16.1255C205.32 16.1255 204.453 16.4365 203.726 17.0586C203 17.67 202.51 18.5227 202.258 19.6167H210.278C210.045 18.5012 209.587 17.6432 208.901 17.0425C208.225 16.4311 207.368 16.1255 206.329 16.1255Z" fill="url(#paint3_linear_11039_4636)"/>
<path d="M14.8311 33.2649C10.7369 33.2649 7.41785 29.9516 7.41785 25.8643H33.0556C33.0556 29.9516 29.7364 33.2649 25.6422 33.2649H14.8311Z" fill="url(#paint4_linear_11039_4636)"/>
<path d="M37.3998 11.9561C35.2681 6.9586 33.2442 6.12591 31.6473 5.53794C31.0586 5.3212 30.5975 4.79354 30.5975 4.17515V0H39.585C40.64 0 41.4953 0.841397 41.4953 1.87931V13.3912C41.4953 13.8525 41.1151 14.2265 40.6463 14.2265H39.585C38.5474 14.2265 37.71 12.9301 37.3998 11.9561Z" fill="url(#paint5_linear_11039_4636)"/>
<path d="M33.2895 25.8072C33.2895 29.8944 29.9703 33.2079 25.8761 33.2079L25.8802 7.32227C29.9744 7.32227 33.2895 10.9275 33.2895 15.0147V25.8072Z" fill="url(#paint6_linear_11039_4636)"/>
<path d="M0.196045 7.32244C0.196045 3.27836 3.48006 0 7.53106 0H25.9733V7.32244H0.196045Z" fill="url(#paint7_linear_11039_4636)"/>
<path d="M0 7.6098C0 3.52258 3.31906 0 7.4133 0V25.8028C3.31906 25.8028 0 22.4895 0 18.4023V7.6098Z" fill="url(#paint8_linear_11039_4636)"/>
<defs>
<linearGradient id="paint0_linear_11039_4636" x1="62.7396" y1="17.8801" x2="104.79" y2="17.8801" gradientUnits="userSpaceOnUse">
<stop offset="0.12766" stop-color="#0A2583"/>
<stop offset="0.9999" stop-color="#355FF5"/>
<stop offset="1" stop-color="#4AF3DB"/>
</linearGradient>
<linearGradient id="paint1_linear_11039_4636" x1="90.5231" y1="17.8804" x2="222.682" y2="17.8805" gradientUnits="userSpaceOnUse">
<stop offset="0.104167" stop-color="#0A2583"/>
<stop offset="0.333333" stop-color="#40ABE8"/>
<stop offset="0.552083" stop-color="#355FF5"/>
<stop offset="1" stop-color="#4AF3DB"/>
</linearGradient>
<linearGradient id="paint2_linear_11039_4636" x1="77.7581" y1="17.8802" x2="222.682" y2="17.8802" gradientUnits="userSpaceOnUse">
<stop stop-color="#0A2583"/>
<stop offset="0.442708" stop-color="#355FF5"/>
<stop offset="1" stop-color="#4AF3DB"/>
</linearGradient>
<linearGradient id="paint3_linear_11039_4636" x1="77.7577" y1="17.8807" x2="222.682" y2="17.8807" gradientUnits="userSpaceOnUse">
<stop stop-color="#0A2583"/>
<stop offset="0.28125" stop-color="#355FF5"/>
<stop offset="0.713542" stop-color="#40ABE8"/>
<stop offset="1" stop-color="#4AF3DB"/>
<stop offset="1" stop-color="#4AF3DB"/>
</linearGradient>
<linearGradient id="paint4_linear_11039_4636" x1="7.41785" y1="29.5646" x2="33.0556" y2="29.5646" gradientUnits="userSpaceOnUse">
<stop offset="0.3125" stop-color="#466EFE"/>
<stop offset="1" stop-color="#1E3587"/>
</linearGradient>
<linearGradient id="paint5_linear_11039_4636" x1="28.1066" y1="2.78345" x2="43.5177" y2="4.03722" gradientUnits="userSpaceOnUse">
<stop offset="0.015625" stop-color="#4AF3DB"/>
<stop offset="0.598958" stop-color="#4168F1"/>
<stop offset="0.979167" stop-color="#1C317B"/>
</linearGradient>
<linearGradient id="paint6_linear_11039_4636" x1="29.4988" y1="6.75308" x2="29.4988" y2="39.5594" gradientUnits="userSpaceOnUse">
<stop stop-color="#355FF5"/>
<stop offset="1" stop-color="#1E3587"/>
</linearGradient>
<linearGradient id="paint7_linear_11039_4636" x1="-2.42361" y1="3.76583" x2="28.069" y2="3.76583" gradientUnits="userSpaceOnUse">
<stop stop-color="#1E3587"/>
<stop offset="0.945277" stop-color="#355FF5"/>
</linearGradient>
<linearGradient id="paint8_linear_11039_4636" x1="3.70666" y1="0.209213" x2="3.70666" y2="25.8028" gradientUnits="userSpaceOnUse">
<stop stop-color="#355FF5"/>
<stop offset="1" stop-color="#1E3587"/>
</linearGradient>
</defs>
</svg>
