<svg xmlns="http://www.w3.org/2000/svg" version="1.2" viewBox="23 3 168 30.2">
	<title>OneChargeLogo</title>
	<defs>
		<linearGradient id="g1" x2="1" gradientUnits="userSpaceOnUse" gradientTransform="matrix(42.05,0,0,16.805,39.735,15.197)">
			<stop offset=".128" stop-color="#0a2583"/>
			<stop offset="1" stop-color="#4af3db"/>
		</linearGradient>
		<linearGradient id="g2" x2="1" gradientUnits="userSpaceOnUse" gradientTransform="matrix(132.159,0,0,89.386,67.519,15.197)">
			<stop offset=".104" stop-color="#0a2583"/>
			<stop offset=".333" stop-color="#40abe8"/>
			<stop offset=".552" stop-color="#355ff5"/>
			<stop offset="1" stop-color="#4af3db"/>
		</linearGradient>
		<linearGradient id="g3" x2="1" gradientUnits="userSpaceOnUse" gradientTransform="matrix(144.924,0,0,71.242,54.754,15.197)">
			<stop offset="0" stop-color="#0a2583"/>
			<stop offset=".443" stop-color="#355ff5"/>
			<stop offset="1" stop-color="#4af3db"/>
		</linearGradient>
		<linearGradient id="g4" x2="1" gradientUnits="userSpaceOnUse" gradientTransform="matrix(144.924,0,0,164.271,54.754,15.197)">
			<stop offset="0" stop-color="#0a2583"/>
			<stop offset=".281" stop-color="#355ff5"/>
			<stop offset=".714" stop-color="#40abe8"/>
			<stop offset="1" stop-color="#4af3db"/>
		</linearGradient>
	</defs>
	<style>
		.s0 { fill: url(#g1) } 
		.s1 { fill: url(#g2) } 
		.s2 { fill: url(#g3) } 
		.s3 { fill: url(#g4) } 
	</style>
	<path class="s0" d="m34 27.5q-3 0-5.6-1.6-2.5-1.5-3.9-4.2-1.5-2.7-1.5-5.9 0-3.3 1.5-5.9 1.4-2.7 3.9-4.2 2.6-1.6 5.6-1.6 3 0 5.6 1.6 2.5 1.5 3.9 4.2 1.5 2.6 1.5 5.9 0 3.2-1.5 5.9-1.4 2.7-3.9 4.2-2.6 1.6-5.6 1.6zm0-4.2q1.8 0 3.4-1 1.6-1 2.5-2.7 0.9-1.7 0.9-3.8 0-2.1-0.9-3.8-0.9-1.7-2.5-2.7-1.6-1-3.4-1-1.8 0-3.4 1-1.6 1-2.5 2.7-0.9 1.7-0.9 3.8 0 2.1 0.9 3.8 0.9 1.7 2.5 2.7 1.6 1 3.4 1zm23.2-13.4q1.9 0 3.3 0.8 1.4 0.9 2.2 2.5 0.8 1.7 0.8 3.9v10h-3.9v-9.3q0-1.9-0.9-3-0.9-1.1-2.6-1.1-1 0-1.9 0.5-0.9 0.6-1.5 1.5-0.5 0.9-0.5 2.1v9.3h-3.8v-16.9h3.3l0.2 2.2q0.9-1.1 2.4-1.8 1.4-0.7 2.9-0.7zm12.7 10.2q0.4 1.8 1.6 2.8 1.3 1 3 1 2.2 0 3.8-1.5l1.8 2.8q-1.1 1.1-2.6 1.7-1.5 0.7-3.2 0.7-2.3 0-4.2-1.2-1.9-1.2-2.9-3.2-1.1-2.1-1.1-4.5 0-2.4 1-4.4 1-2 2.8-3.2 1.8-1.2 4-1.2 2.4 0 4.2 1.1 1.8 1.1 2.7 3.1 0.9 2 0.9 4.5 0 0.8-0.1 1.5zm4.1-6.7q-1.5 0-2.6 1-1.1 0.9-1.5 2.5h8.1q-0.4-1.6-1.4-2.5-1-1-2.6-1z"/>
	<path class="s1" d="m96.9 27.5q-3.1 0-5.6-1.6-2.5-1.5-4-4.2-1.4-2.7-1.4-5.9 0-3.3 1.4-5.9 1.5-2.7 4-4.2 2.5-1.6 5.6-1.6 2 0 3.9 0.7 1.8 0.8 3.3 2.1l-2.4 3.3q-0.9-0.9-2.2-1.4-1.3-0.5-2.6-0.5-1.9 0-3.4 1-1.6 1-2.5 2.7-1 1.7-1 3.8 0 2.1 1 3.8 0.9 1.7 2.5 2.7 1.5 1 3.4 1 1.3 0 2.5-0.5 1.2-0.4 2.4-1.5l2.3 3.4q-1.5 1.3-3.3 2-1.9 0.8-3.9 0.8zm18.9-17.6q1.9 0 3.3 0.8 1.4 0.9 2.2 2.5 0.8 1.7 0.8 3.9v10h-3.9v-9.2q0-2-0.9-3.1-0.9-1.1-2.6-1.1-1.1 0-2 0.5-0.9 0.6-1.4 1.5-0.5 0.9-0.5 2.1v9.3h-3.8v-24.1h3.8v9.1q0.9-1 2.3-1.6 1.3-0.6 2.7-0.6z"/>
	<path class="s2" d="m137.8 10.2h3.4v16.9h-3.4l-0.3-2q-0.9 1.1-2.1 1.8-1.2 0.6-2.7 0.6-2.2 0-4-1.2-1.9-1.2-2.9-3.2-1.1-2-1.1-4.4 0-2.4 1.1-4.4 1.1-2.1 2.9-3.2 1.8-1.2 4-1.2 1.5 0 2.7 0.6 1.3 0.7 2.2 1.8zm-4.8 13.4q1.2 0 2.3-0.7 1-0.6 1.6-1.7 0.6-1.2 0.6-2.6 0-1.4-0.6-2.5-0.6-1.1-1.6-1.8-1.1-0.6-2.3-0.6-1.3 0-2.3 0.6-1 0.7-1.6 1.8-0.6 1.1-0.6 2.5 0 1.4 0.6 2.6 0.6 1.1 1.6 1.7 1 0.7 2.3 0.7zm20.1-13.8q0.9 0 1.9 0.4 0.9 0.3 1.8 0.9l-1.7 3.4q-1.2-0.9-2.5-0.9-0.8 0-1.6 0.6-0.8 0.6-1.3 1.6-0.5 1-0.5 2.4v8.8h-3.9v-16.8h3.3l0.3 2.3q0.7-1.3 1.7-2 1.1-0.7 2.5-0.7zm15.9 0.4h3.2v14.4q0 2.5-0.9 4.4-0.9 2-2.7 3.1-1.8 1.1-4.5 1.1-1.8 0-3.7-0.5-1.8-0.5-3-1.3l1.4-3.2q2.4 1.3 4.9 1.3 1.6 0 2.6-0.6 1.1-0.6 1.6-1.8 0.5-1.1 0.5-2.4v-0.4q-0.9 0.9-2 1.4-1.2 0.5-2.6 0.5-2.1 0-3.8-1-1.7-1-2.8-2.9-1-1.8-1-4.1 0-2.2 1.1-4.2 1-1.9 2.7-3 1.8-1.2 3.8-1.2 1.6 0 2.8 0.6 1.1 0.6 2 1.7zm-4.7 12.5q1.2 0 2.2-0.6 1-0.6 1.5-1.6 0.6-1.1 0.6-2.3 0-1.3-0.6-2.3-0.5-1.1-1.5-1.7-1-0.6-2.2-0.6-1.2 0-2.2 0.6-0.9 0.6-1.5 1.6-0.5 1.1-0.5 2.3 0 1.3 0.5 2.3 0.6 1.1 1.5 1.7 1 0.6 2.2 0.6z"/>
	<path class="s3" d="m179.2 20.1q0.4 1.8 1.6 2.8 1.3 1 3 1 2.2 0 3.8-1.5l1.8 2.8q-1.1 1.1-2.6 1.7-1.5 0.7-3.2 0.7-2.3 0-4.2-1.2-1.9-1.2-2.9-3.2-1.1-2.1-1.1-4.5 0-2.4 1-4.4 1-2 2.8-3.2 1.8-1.2 4-1.2 2.4 0 4.2 1.1 1.7 1.1 2.7 3.1 0.9 2 0.9 4.5 0 0.8-0.1 1.5zm4.1-6.7q-1.5 0-2.6 1-1.1 0.9-1.5 2.5h8.1q-0.4-1.6-1.4-2.5-1-1-2.6-1z"/>
</svg>