<svg width="15" height="15" viewBox="0 0 15 15" fill="none" xmlns="http://www.w3.org/2000/svg">
<path fill-rule="evenodd" clip-rule="evenodd" d="M6.67155 1.50466e-08C5.60762 9.06558e-05 4.55913 0.254611 3.61357 0.742327C2.668 1.23004 1.85278 1.93681 1.23592 2.80367C0.61906 3.67052 0.218443 4.67232 0.0674945 5.7255C-0.0834535 6.77867 0.0196445 7.85267 0.368187 8.85789C0.71673 9.86311 1.30061 10.7704 2.07111 11.5041C2.84162 12.2378 3.7764 12.7765 4.79748 13.0755C5.81856 13.3744 6.89632 13.4248 7.94084 13.2225C8.98536 13.0202 9.96636 12.571 10.802 11.9125L13.6686 14.7791C13.8167 14.9221 14.015 15.0012 14.2208 14.9994C14.4266 14.9977 14.6235 14.9151 14.769 14.7696C14.9145 14.624 14.9971 14.4272 14.9989 14.2213C15.0007 14.0155 14.9216 13.8173 14.7786 13.6692L11.9119 10.8026C12.6874 9.8187 13.1703 8.63639 13.3053 7.39092C13.4402 6.14545 13.2218 4.88715 12.6751 3.76001C12.1283 2.63287 11.2752 1.68244 10.2135 1.01748C9.15179 0.352528 7.92431 -8.41027e-05 6.67155 1.50466e-08ZM1.56934 6.67212C1.56934 5.31893 2.10689 4.02116 3.06374 3.06431C4.02059 2.10746 5.31836 1.56991 6.67155 1.56991C8.02474 1.56991 9.32251 2.10746 10.2794 3.06431C11.2362 4.02116 11.7738 5.31893 11.7738 6.67212C11.7738 8.02531 11.2362 9.32307 10.2794 10.2799C9.32251 11.2368 8.02474 11.7743 6.67155 11.7743C5.31836 11.7743 4.02059 11.2368 3.06374 10.2799C2.10689 9.32307 1.56934 8.02531 1.56934 6.67212Z" fill="#A1B1D1"/>
</svg>
