<svg width="26" height="31" viewBox="0 0 26 31" fill="none" xmlns="http://www.w3.org/2000/svg">
<path d="M12.9773 30.0476C4.55436 22.5352 -7.23774 6.28128 12.9773 1.36411C21.4002 2.95764 33.1923 10.9253 12.9773 30.0476Z" fill="#05CAAD"/>
<path d="M22.0633 3.8404C19.6395 1.38143 16.3521 -2.59094e-08 12.9244 0C9.49662 2.59094e-08 6.20926 1.38143 3.78546 3.8404C1.36167 6.29937 2.55388e-08 9.63444 0 13.1119C-2.55388e-08 16.5895 1.36167 19.9245 3.78546 22.3835L11.8125 30.5425C11.9541 30.6873 12.1225 30.8022 12.3082 30.8807C12.4938 30.9591 12.6928 30.9995 12.8939 30.9995C13.095 30.9995 13.2941 30.9591 13.4797 30.8807C13.6653 30.8022 13.8338 30.6873 13.9754 30.5425L22.0633 22.3062C24.477 19.8575 25.8329 16.5363 25.8329 13.0733C25.8329 9.61031 24.477 6.28914 22.0633 3.8404ZM19.8852 20.0965L12.9244 27.1892L5.96357 20.0965C4.58839 18.7001 3.65215 16.9214 3.27322 14.9852C2.89429 13.0491 3.08967 11.0425 3.83467 9.21895C4.57967 7.39544 5.84083 5.83695 7.45875 4.74048C9.07666 3.644 10.9787 3.05878 12.9244 3.05878C14.8701 3.05878 16.7721 3.644 18.39 4.74048C20.0079 5.83695 21.2691 7.39544 22.0141 9.21895C22.7591 11.0425 22.9545 13.0491 22.5755 14.9852C22.1966 16.9214 21.2604 18.7001 19.8852 20.0965Z" fill="#05CAAD"/>
<path d="M10.07 14.9443H11.4551L9.71184 21.3365C9.68146 21.4433 9.67543 21.556 9.69422 21.6656C9.71301 21.7753 9.7561 21.8788 9.82006 21.968C9.88402 22.0572 9.96707 22.1295 10.0626 22.1792C10.1581 22.2289 10.2634 22.2547 10.3702 22.2543C10.4614 22.2548 10.5518 22.236 10.636 22.1992C10.7201 22.1624 10.7963 22.1082 10.86 22.04L17.4221 15.1697C17.5266 15.0613 17.5979 14.9229 17.6268 14.7721C17.6557 14.6214 17.641 14.465 17.5845 14.323C17.528 14.181 17.4324 14.0597 17.3097 13.9746C17.187 13.8895 17.0428 13.8444 16.8955 13.8451H15.6052L17.1851 8.03004C17.2444 7.81061 17.2543 7.57984 17.2139 7.35577C17.1736 7.13171 17.0841 6.92041 16.9526 6.7384C16.821 6.5564 16.6509 6.40861 16.4555 6.30659C16.2602 6.20457 16.0448 6.15109 15.8264 6.15032H12.4031C12.0961 6.15196 11.7978 6.25723 11.5529 6.45041C11.308 6.6436 11.1296 6.91431 11.0443 7.22209L9.23785 13.8176C9.20203 13.95 9.19612 14.0893 9.22058 14.2246C9.24503 14.3598 9.29919 14.4873 9.3788 14.597C9.4584 14.7067 9.56129 14.7956 9.67939 14.8569C9.79749 14.9181 9.92757 14.9499 10.0594 14.9498L10.07 14.9443Z" fill="white"/>
</svg>
