<svg width="40" height="30" viewBox="0 0 40 30" fill="none" xmlns="http://www.w3.org/2000/svg">
<g clip-path="url(#clip0_19372_10565)">
<path d="M2.72727 30.0003H9.09091V14.5457L0 7.72754V27.273C0 28.7821 1.22273 30.0003 2.72727 30.0003Z" fill="#4285F4"/>
<path d="M30.9092 30.0003H37.2728C38.7819 30.0003 40.0001 28.7775 40.0001 27.273V7.72754L30.9092 14.5457" fill="#34A853"/>
<path d="M30.9092 2.7272V14.5454L40.0001 7.7272V4.09083C40.0001 0.718106 36.1501 -1.20462 33.4546 0.818106" fill="#FBBC04"/>
<path d="M9.09082 14.5457V2.72754L19.9999 10.9094L30.909 2.72754V14.5457L19.9999 22.7275" fill="#EA4335"/>
<path d="M0 4.09083V7.7272L9.09091 14.5454V2.7272L6.54545 0.818106C3.84546 -1.20462 0 0.718106 0 4.09083Z" fill="#C5221F"/>
</g>
<defs>
<clipPath id="clip0_19372_10565">
<rect width="40" height="30" fill="white"/>
</clipPath>
</defs>
</svg>
