<svg width="50" height="50" viewBox="0 0 50 50" fill="none" xmlns="http://www.w3.org/2000/svg">
<g clip-path="url(#clip0_19372_10573)">
<path d="M41.2503 25.7504C41.2521 25.4982 41.1218 25.2635 40.9068 25.1316H40.9031L40.8896 25.1241L29.7146 18.5091C29.6663 18.4765 29.6162 18.4467 29.5646 18.4199C29.1331 18.1973 28.6206 18.1973 28.1891 18.4199C28.1374 18.4467 28.0873 18.4765 28.0391 18.5091L16.8641 25.1241L16.8506 25.1316C16.5091 25.344 16.4044 25.7931 16.6168 26.1346C16.6793 26.2353 16.7655 26.3191 16.8679 26.3789L28.0428 32.9939C28.0913 33.0262 28.1413 33.056 28.1929 33.0831C28.6243 33.3057 29.1369 33.3057 29.5684 33.0831C29.6199 33.056 29.6699 33.0262 29.7184 32.9939L40.8934 26.3789C41.1166 26.2487 41.2529 26.0088 41.2503 25.7504Z" fill="#0A2767"/>
<path d="M18.1669 21.3332H25.5004V28.0555H18.1669V21.3332ZM39.7504 14.5V11.425C39.768 10.6562 39.1594 10.0184 38.3906 10H19.3601C18.5913 10.0184 17.9828 10.6562 18.0004 11.425V14.5L29.2504 17.5L39.7504 14.5Z" fill="#0364B8"/>
<path d="M18 14.5H25.5V21.25H18V14.5Z" fill="#0078D4"/>
<path d="M33 14.5H25.5V21.25L33 28H39.75V21.25L33 14.5Z" fill="#28A8EA"/>
<path d="M25.5 21.25H33V28H25.5V21.25Z" fill="#0078D4"/>
<path d="M25.5 28H33V34.75H25.5V28Z" fill="#0364B8"/>
<path d="M18.166 28.0557H25.4995V34.1667H18.166V28.0557Z" fill="#14447D"/>
<path d="M33 28H39.75V34.75H33V28Z" fill="#0078D4"/>
<path d="M40.9065 26.3373L40.8922 26.3448L29.7172 32.6297C29.6685 32.6597 29.619 32.6882 29.5672 32.7137C29.3774 32.8041 29.1713 32.8551 28.9612 32.8637L28.3507 32.5067C28.2991 32.4808 28.2491 32.4521 28.2007 32.4205L16.8757 25.957H16.8705L16.5 25.75V38.473C16.5058 39.3218 17.1984 40.0054 18.0472 40H39.7267C39.7395 40 39.7507 39.994 39.7642 39.994C39.9435 39.9825 40.1203 39.9456 40.2892 39.8845C40.3622 39.8536 40.4327 39.817 40.5 39.775C40.5502 39.7465 40.6365 39.6843 40.6365 39.6843C41.0207 39.4 41.2481 38.951 41.25 38.473V25.75C41.2497 25.9934 41.1185 26.2177 40.9065 26.3373Z" fill="url(#paint0_linear_19372_10573)"/>
<path opacity="0.5" d="M40.65 25.6993V26.4793L28.965 34.5246L16.8675 25.9618C16.8675 25.9577 16.8641 25.9543 16.86 25.9543L15.75 25.2868V24.7243L16.2075 24.7168L17.175 25.2718L17.1975 25.2793L17.28 25.3318C17.28 25.3318 28.65 31.8193 28.68 31.8343L29.115 32.0893C29.1525 32.0743 29.19 32.0593 29.235 32.0443C29.2575 32.0293 40.5224 25.6918 40.5224 25.6918L40.65 25.6993Z" fill="#0A2767"/>
<path d="M40.9065 26.3373L40.8922 26.3455L29.7172 32.6305C29.6685 32.6605 29.619 32.689 29.5672 32.7145C29.1332 32.9265 28.6257 32.9265 28.1917 32.7145C28.1403 32.689 28.0903 32.661 28.0417 32.6305L16.8667 26.3455L16.8533 26.3373C16.6375 26.2203 16.5022 25.9954 16.5 25.75V38.473C16.5054 39.3217 17.1977 40.0054 18.0464 40C18.0464 40 18.0465 40 18.0465 40H39.7035C40.5522 40.0054 41.2446 39.3218 41.25 38.4731C41.25 38.4731 41.25 38.473 41.25 38.473V25.75C41.2497 25.9934 41.1184 26.2177 40.9065 26.3373Z" fill="#026451"/>
<path opacity="0.1" d="M29.8804 32.5371L29.7131 32.6309C29.6647 32.6617 29.6146 32.69 29.5631 32.7156C29.3789 32.8061 29.1785 32.8591 28.9736 32.8716L33.2254 37.8996L40.6421 39.6869C40.8454 39.5333 41.007 39.3315 41.1124 39.0996L29.8804 32.5371Z" fill="black"/>
<path opacity="0.05" d="M30.6379 32.1113L29.7131 32.6311C29.6647 32.6619 29.6146 32.6902 29.5631 32.7158C29.3789 32.8063 29.1785 32.8593 28.9736 32.8718L30.9656 38.3641L40.6444 39.6848C41.0257 39.3985 41.2501 38.9496 41.2504 38.4728V38.3086L30.6379 32.1113Z" fill="black"/>
<path d="M18.0675 40H39.7012C40.0341 40.0017 40.3588 39.8965 40.6275 39.7L28.35 32.5083C28.2984 32.4824 28.2483 32.4536 28.2 32.422L16.875 25.9585H16.8697L16.5 25.75V38.4295C16.4992 39.296 17.2009 39.9992 18.0675 40Z" fill="#28A8EA"/>
<path opacity="0.1" d="M27 17.3747V33.3722C26.9987 33.9331 26.6576 34.4373 26.1375 34.6472C25.9764 34.7165 25.8029 34.7522 25.6275 34.7522H16.5V16.75H18V16H25.6275C26.3852 16.0029 26.9984 16.6171 27 17.3747Z" fill="black"/>
<path opacity="0.2" d="M26.25 18.1248V34.1223C26.2519 34.3035 26.2135 34.4828 26.1375 34.6473C25.9292 35.1607 25.4315 35.4975 24.8775 35.5H16.5V16.7501H24.8775C25.0951 16.7479 25.3096 16.8022 25.5 16.9076C25.9597 17.1392 26.2498 17.61 26.25 18.1248Z" fill="black"/>
<path opacity="0.2" d="M26.25 18.1248V32.6223C26.2463 33.3796 25.6348 33.9935 24.8775 34H16.5V16.7501H24.8775C25.0951 16.7479 25.3096 16.8022 25.5 16.9076C25.9597 17.1392 26.2498 17.61 26.25 18.1248Z" fill="black"/>
<path opacity="0.2" d="M25.5 18.1247V32.6222C25.4992 33.3808 24.886 33.9963 24.1275 34H16.5V16.75H24.1275C24.8859 16.7504 25.5004 17.3656 25.5 18.124C25.5 18.1243 25.5 18.1245 25.5 18.1247Z" fill="black"/>
<path d="M10.3747 16.75H24.1252C24.8845 16.75 25.5 17.3655 25.5 18.1247V31.8752C25.5 32.6345 24.8845 33.25 24.1252 33.25H10.3747C9.61549 33.25 9 32.6345 9 31.8752V18.1247C9 17.3655 9.6155 16.75 10.3747 16.75Z" fill="url(#paint1_linear_19372_10573)"/>
<path d="M13.2968 22.5155C13.6357 21.7936 14.1826 21.1895 14.8673 20.7808C15.6257 20.3466 16.4891 20.1302 17.3626 20.1553C18.1722 20.1377 18.971 20.3429 19.6718 20.7485C20.3308 21.1415 20.8615 21.7173 21.1996 22.406C21.5678 23.1649 21.7512 24.0002 21.7351 24.8435C21.7529 25.7249 21.5641 26.5982 21.1838 27.3935C20.8377 28.1069 20.2902 28.7032 19.6088 29.1088C18.881 29.5268 18.0525 29.7374 17.2133 29.7178C16.3865 29.7377 15.57 29.5302 14.8531 29.1178C14.1884 28.7243 13.6511 28.1478 13.3051 27.4572C12.9347 26.7093 12.7491 25.8835 12.7636 25.049C12.7482 24.1751 12.9305 23.3091 13.2968 22.5155ZM14.9708 26.588C15.1515 27.0444 15.4578 27.4402 15.8543 27.7295C16.2582 28.0118 16.7418 28.1574 17.2343 28.145C17.7589 28.1658 18.2759 28.0152 18.7073 27.716C19.0988 27.4276 19.3971 27.0307 19.5653 26.5745C19.7534 26.065 19.8462 25.5253 19.8391 24.9823C19.8449 24.434 19.7576 23.8888 19.5811 23.3698C19.4251 22.9012 19.1364 22.4879 18.7501 22.1803C18.3295 21.867 17.8138 21.708 17.2898 21.7303C16.7866 21.7172 16.2922 21.864 15.8776 22.1495C15.4744 22.4401 15.1622 22.8394 14.9776 23.3008C14.568 24.3584 14.5659 25.5304 14.9716 26.5895L14.9708 26.588Z" fill="white"/>
<path d="M33 14.5H39.75V21.25H33V14.5Z" fill="#50D9FF"/>
</g>
<defs>
<linearGradient id="paint0_linear_19372_10573" x1="28.875" y1="25.75" x2="28.875" y2="40" gradientUnits="userSpaceOnUse">
<stop stop-color="#35B8F1"/>
<stop offset="1" stop-color="#28A8EA"/>
</linearGradient>
<linearGradient id="paint1_linear_19372_10573" x1="11.8664" y1="15.6758" x2="22.6336" y2="34.3242" gradientUnits="userSpaceOnUse">
<stop stop-color="#1784D9"/>
<stop offset="0.5" stop-color="#107AD5"/>
<stop offset="1" stop-color="#0A63C9"/>
</linearGradient>
<clipPath id="clip0_19372_10573">
<rect width="32.25" height="30" fill="white" transform="translate(9 10)"/>
</clipPath>
</defs>
</svg>
